<?xml version="1.0" standalone="no"?>
<!DOCTYPE svg PUBLIC "-//W3C//DTD SVG 20010904//EN"
 "http://www.w3.org/TR/2001/REC-SVG-20010904/DTD/svg10.dtd">
<svg version="1.0" xmlns="http://www.w3.org/2000/svg"
 width="1024.000000pt" height="1024.000000pt" viewBox="0 0 1024.000000 1024.000000"
 preserveAspectRatio="xMidYMid meet">

<g transform="translate(0.000000,1024.000000) scale(0.100000,-0.100000)"
fill="#000000" stroke="none">
<path d="M2860 9254 c-117 -16 -323 -64 -406 -96 -83 -32 -58 -31 37 1 117 39
242 67 382 86 103 13 387 15 2227 15 1870 0 2122 -2 2232 -16 611 -79 1110
-432 1362 -964 88 -187 133 -351 156 -565 l9 -90 -4 93 c-13 274 -140 608
-324 853 -289 385 -719 625 -1231 689 -57 7 -783 10 -2210 9 -1761 -1 -2143
-3 -2230 -15z"/>
<path d="M2293 9090 c-46 -21 -83 -41 -83 -44 0 -4 170 71 179 80 13 12 -24
-1 -96 -36z"/>
<path d="M4915 9056 c-17 -7 -44 -28 -59 -47 -27 -32 -28 -37 -23 -109 3 -41
15 -111 26 -155 10 -44 22 -98 26 -120 l7 -40 -33 45 c-50 68 -180 191 -242
229 -98 58 -174 84 -252 85 -87 1 -129 -21 -165 -85 -23 -41 -25 -53 -25 -189
0 -131 3 -152 27 -221 35 -99 86 -185 151 -255 l52 -56 -74 -72 c-40 -39 -145
-153 -233 -253 -176 -203 -258 -278 -458 -423 -181 -132 -259 -198 -319 -270
-130 -156 -191 -322 -191 -520 0 -364 255 -660 665 -770 111 -30 333 -38 471
-16 96 14 481 103 627 144 l67 19 0 -59 c0 -73 -18 -240 -31 -290 l-10 -38
-82 0 c-122 0 -305 -18 -367 -36 -165 -48 -256 -148 -297 -326 l-18 -78 -1170
-2 -1170 -3 -43 -23 c-49 -26 -65 -58 -56 -111 8 -44 138 -560 240 -950 40
-156 84 -307 97 -335 56 -121 176 -208 313 -227 38 -5 312 -25 609 -44 704
-47 890 -62 914 -75 21 -11 41 -40 41 -59 0 -8 -246 -11 -820 -11 l-820 0 -32
-29 c-27 -24 -33 -36 -33 -71 0 -34 6 -47 28 -66 l29 -24 -19 -48 c-26 -68
-23 -172 7 -240 44 -101 154 -172 266 -172 96 0 202 61 254 145 l22 35 430 -2
430 -1 23 -37 c57 -90 145 -139 251 -140 168 0 293 126 294 295 0 70 0 70 36
90 133 72 115 292 -37 449 -48 49 -56 62 -49 80 9 20 195 649 320 1081 33 116
65 225 71 243 l11 33 20 -26 c44 -56 211 -157 307 -186 26 -8 46 -21 52 -33 4
-12 20 -52 35 -91 49 -132 173 -370 240 -465 131 -182 364 -402 554 -520 149
-93 220 -117 269 -91 12 7 52 -1 142 -30 68 -22 149 -42 179 -44 71 -4 279
-44 305 -58 12 -7 91 -13 193 -15 154 -4 172 -6 172 -21 0 -38 54 -102 110
-128 46 -22 72 -27 166 -31 126 -5 229 15 337 67 34 16 62 29 62 28 0 -1 9
-20 20 -42 17 -35 25 -40 57 -43 29 -2 43 2 61 20 21 21 25 36 29 129 7 130
31 224 119 461 127 344 152 464 152 718 0 138 -5 186 -26 290 -92 445 -320
690 -807 866 -120 43 -198 90 -324 194 l-88 73 73 34 c99 46 134 75 166 136
21 41 27 66 27 122 1 80 -16 121 -65 156 -35 24 -100 29 -249 16 l-85 -7 79
35 c228 103 255 135 256 296 0 82 -3 102 -26 146 -19 40 -35 57 -68 72 -23 12
-56 21 -72 21 -26 0 -147 -17 -249 -35 l-40 -7 60 36 c138 84 249 172 272 216
49 93 11 282 -72 360 -37 35 -81 31 -240 -18 -71 -22 -131 -39 -132 -38 -2 1
42 44 96 94 126 117 161 168 161 236 -1 88 -55 174 -149 238 -25 17 -47 32
-49 33 -1 1 9 36 23 78 50 149 52 358 5 510 -70 226 -292 276 -537 122 -32
-21 -103 -83 -157 -138 -55 -55 -97 -93 -93 -84 14 36 18 135 7 182 -15 69
-47 111 -104 140 -88 44 -175 26 -223 -47 -14 -21 -47 -107 -72 -191 -62 -203
-67 -209 -76 -116 -14 149 -96 340 -182 426 -82 83 -212 117 -298 79z m-450
-350 c98 -51 217 -184 288 -323 l17 -31 -90 -56 c-50 -31 -95 -56 -101 -56
-18 0 -129 112 -155 155 -49 85 -81 228 -68 313 7 50 11 50 109 -2z m1978 -40
c42 -42 56 -311 23 -441 -55 -214 -203 -401 -373 -469 -128 -52 -95 -148 56
-165 l54 -6 23 -67 22 -67 -27 -38 c-68 -93 -191 -181 -300 -214 -51 -15 -74
-45 -69 -91 4 -47 50 -68 150 -68 99 0 162 15 257 61 41 21 79 35 82 33 4 -2
17 -44 29 -94 l22 -89 -35 -48 c-50 -68 -138 -150 -236 -218 -46 -33 -99 -74
-117 -92 -40 -40 -54 -95 -33 -132 44 -78 291 -34 437 77 24 18 46 31 49 29 2
-3 15 -47 28 -97 l23 -91 -65 -70 c-127 -134 -244 -207 -445 -276 -149 -51
-180 -69 -198 -113 -27 -65 38 -104 191 -117 195 -15 448 65 605 194 l52 42
47 -54 46 -54 -55 -110 c-130 -257 -312 -549 -500 -799 -123 -163 -237 -287
-349 -378 -161 -133 -177 -155 -140 -196 30 -33 75 -22 226 55 272 140 420
242 591 407 240 231 393 461 459 689 15 52 27 79 32 71 4 -7 49 -32 100 -56
l92 -43 -9 -73 c-10 -89 -65 -302 -108 -418 -36 -98 -144 -325 -197 -414 -20
-34 -81 -123 -135 -198 -143 -199 -201 -333 -152 -352 79 -30 195 37 398 234
173 167 284 323 371 520 86 193 128 337 140 482 l7 77 47 -26 c25 -15 74 -44
107 -66 61 -40 62 -40 57 -81 -9 -83 -45 -241 -75 -325 -67 -191 -198 -423
-311 -549 -64 -71 -87 -109 -87 -147 0 -113 303 25 496 227 71 74 171 207 210
278 15 28 29 48 31 46 14 -14 22 -236 12 -346 -11 -124 -11 -125 -47 -163
-101 -106 -296 -222 -481 -287 -151 -54 -194 -94 -176 -166 14 -52 47 -73 125
-80 121 -11 289 43 413 132 36 26 48 31 42 18 -29 -71 -105 -287 -105 -299 0
-31 -173 -107 -335 -146 -44 -10 -141 -24 -215 -29 -92 -7 -139 -15 -150 -25
-13 -12 -46 -15 -147 -15 -72 0 -151 3 -177 6 l-46 7 69 72 c109 115 183 234
216 349 20 67 14 102 -19 117 -36 17 -75 -10 -160 -109 -93 -110 -186 -197
-318 -297 l-101 -76 -121 34 c-168 49 -176 52 -176 80 0 34 -22 60 -100 112
-38 27 -70 51 -69 54 0 3 32 26 71 51 91 58 286 249 371 364 64 88 147 234
147 261 0 25 -31 45 -70 45 -36 0 -51 -10 -160 -107 -226 -200 -368 -287 -549
-334 -123 -32 -118 -34 -208 69 -120 136 -215 275 -289 423 -40 78 -74 161
-74 179 0 4 53 10 118 13 262 14 503 113 645 266 123 133 142 260 45 294 -28
10 -44 -1 -104 -71 -72 -85 -142 -143 -226 -188 l-68 -35 0 78 c0 135 -41 278
-106 375 -19 28 -33 52 -32 53 2 1 26 7 53 14 66 16 187 76 216 107 33 35 33
99 0 125 -28 23 -60 24 -126 3 -27 -8 -141 -37 -252 -63 l-203 -48 1 86 c0 47
6 134 12 194 l12 108 109 44 c350 142 521 347 519 622 0 76 -4 100 -24 140
-27 55 -57 65 -108 38 -33 -17 -33 -18 -31 -108 3 -113 -29 -211 -97 -294 -38
-48 -56 -55 -47 -19 16 63 -33 235 -71 250 -64 24 -90 -5 -99 -107 -8 -87 -50
-260 -71 -293 -12 -19 -160 -83 -169 -73 -2 2 1 32 7 67 31 179 -72 422 -177
422 -55 0 -61 -17 -41 -114 22 -106 17 -314 -10 -389 -20 -55 -25 -58 -142
-87 -104 -26 -126 -26 -118 -1 36 115 45 310 20 431 -39 184 -137 369 -266
500 -121 123 -264 208 -437 260 -40 12 -72 26 -70 30 2 4 39 37 83 72 147 119
290 254 429 407 76 83 166 174 201 201 65 52 232 160 247 160 15 0 8 -41 -27
-156 -54 -179 -56 -244 -8 -244 21 0 117 94 172 169 55 74 118 185 137 240 10
31 18 37 49 42 27 4 38 2 42 -8 11 -29 -8 -147 -43 -260 -31 -101 -33 -118
-21 -131 27 -26 76 -5 143 62 83 83 124 170 131 277 5 73 8 79 28 79 30 0 119
-32 180 -63 80 -42 84 -48 78 -94 -12 -94 26 -163 91 -163 36 0 76 36 76 69 0
35 82 257 126 341 73 142 209 275 346 340 69 33 137 39 161 16z m-2473 -1942
c17 -45 12 -112 -10 -134 -50 -50 -110 -8 -110 77 0 90 92 133 120 57z m-490
17 c5 -11 10 -43 10 -72 0 -40 -5 -58 -22 -76 -28 -30 -72 -30 -92 -1 -23 33
-21 109 5 142 26 33 83 37 99 7z m825 -388 c14 -13 16 -28 12 -69 -17 -167
-205 -314 -402 -314 -72 0 -118 26 -113 64 3 19 11 21 93 27 67 4 105 12 146
31 100 46 179 135 194 221 10 52 41 70 70 40z m926 -1037 c45 -97 75 -216 85
-337 8 -104 15 -98 -144 -106 l-113 -6 8 44 c4 24 8 103 8 174 -1 109 -4 142
-24 203 -13 40 -28 75 -32 78 -31 19 5 28 124 32 l48 2 40 -84z m-682 14 c-21
-41 -23 -107 -4 -152 5 -13 2 -18 -9 -18 -38 0 -77 -53 -102 -140 -14 -47
-115 -398 -225 -780 -109 -382 -201 -701 -204 -708 -4 -10 -11 -9 -35 3 -33
17 -254 34 -1125 89 -220 14 -425 28 -455 32 -92 10 -159 57 -188 130 -6 16
-61 236 -122 489 -62 253 -125 511 -140 573 l-28 112 1183 0 1183 0 41 147
c23 81 51 162 63 179 33 48 96 80 165 83 l23 1 -21 -40z m-380 -2088 c15 -53
5 -63 -31 -30 -27 25 -30 32 -20 49 7 10 12 27 12 36 1 16 2 16 15 -2 9 -10
19 -34 24 -53z m-483 -140 c-8 -15 -17 -44 -21 -65 l-7 -37 -419 0 -419 0 0
23 c0 12 -9 41 -20 65 l-19 42 460 0 460 0 -15 -28z m310 2 c38 -18 74 -82 74
-132 0 -108 -110 -179 -185 -120 -79 62 -70 206 16 250 42 22 52 22 95 2z
m-1397 -10 c27 -19 61 -88 61 -124 0 -42 -36 -107 -69 -124 -86 -45 -171 17
-171 124 0 105 103 177 179 124z"/>
<path d="M6186 8318 c-88 -91 -151 -190 -210 -331 -61 -143 -35 -184 70 -112
161 111 283 325 272 477 -3 37 -6 43 -27 46 -19 3 -41 -13 -105 -80z"/>
<path d="M5159 7420 c-73 -21 -114 -83 -125 -186 -16 -151 73 -267 183 -239
39 9 99 74 112 120 47 169 -49 341 -170 305z"/>
<path d="M2130 4771 c0 -10 47 -213 56 -243 5 -16 20 -18 130 -18 112 0 124 2
123 18 0 9 -8 69 -17 132 l-17 115 -138 3 c-81 1 -137 -1 -137 -7z"/>
<path d="M2560 4758 c0 -13 7 -70 15 -128 8 -58 15 -108 15 -112 0 -5 60 -8
133 -8 l132 0 -7 127 c-3 71 -6 131 -7 136 -1 4 -64 7 -141 7 -139 0 -140 0
-140 -22z"/>
<path d="M2994 4688 c3 -50 6 -111 6 -135 l0 -43 130 0 c96 0 132 3 134 13 3
6 7 67 10 135 l7 122 -147 0 -147 0 7 -92z"/>
<path d="M3426 4688 c-3 -50 -6 -111 -6 -135 l0 -43 130 0 129 0 6 33 c3 17
14 78 24 135 l17 102 -146 0 -147 0 -7 -92z"/>
<path d="M3856 4668 c-10 -62 -20 -123 -23 -135 l-5 -23 146 0 145 0 11 43 c7
23 22 80 36 127 13 46 24 88 24 92 0 4 -71 8 -158 8 l-158 0 -18 -112z"/>
<path d="M2223 4356 c3 -7 18 -70 33 -140 l28 -126 108 0 c107 0 108 0 103 23
-2 12 -9 60 -15 107 -6 47 -13 100 -17 118 l-5 32 -120 0 c-98 0 -119 -3 -115
-14z"/>
<path d="M2613 4323 c4 -27 12 -90 18 -140 l12 -93 113 0 114 0 0 43 c0 23 -3
86 -7 140 l-6 97 -125 0 -125 0 6 -47z"/>
<path d="M3010 4262 c0 -60 3 -124 6 -141 l7 -31 107 0 108 0 6 53 c3 28 6 90
7 137 l2 85 -121 3 -122 3 0 -109z"/>
<path d="M3400 4328 c0 -24 -3 -87 -7 -140 l-6 -98 111 0 c108 0 112 1 116 23
11 51 36 216 36 236 0 20 -4 21 -125 21 l-125 0 0 -42z"/>
<path d="M3805 4358 c-2 -7 -11 -56 -19 -109 -9 -53 -19 -111 -22 -128 l-6
-31 124 0 125 0 36 134 c21 73 37 136 37 140 0 3 -61 6 -135 6 -100 0 -137 -3
-140 -12z"/>
<path d="M2325 3908 c8 -48 28 -93 47 -105 7 -4 46 -10 87 -13 l73 -5 -7 60
c-12 112 -4 105 -112 105 l-95 0 7 -42z"/>
<path d="M2664 3893 c13 -111 12 -110 63 -117 25 -3 71 -6 102 -6 l56 0 -3 90
-3 90 -111 0 -110 0 6 -57z"/>
<path d="M3025 3858 c4 -52 12 -96 18 -100 7 -4 48 -8 93 -8 l81 0 7 53 c3 28
6 73 6 100 l0 47 -106 0 -107 0 8 -92z"/>
<path d="M3376 3904 c-3 -26 -6 -73 -6 -104 0 -56 1 -58 31 -64 17 -3 57 -6
89 -6 l58 0 11 63 c6 34 14 83 17 110 l7 47 -100 0 -100 0 -7 -46z"/>
<path d="M3716 3839 c-10 -61 -16 -113 -14 -115 2 -2 49 -5 103 -6 97 -3 98
-3 105 22 4 14 19 67 33 118 l26 92 -118 0 -117 0 -18 -111z"/>
<path d="M2135 9003 c-344 -213 -614 -551 -724 -907 -34 -109 -23 -100 14 11
118 355 347 647 680 866 50 32 92 61 94 63 12 12 -11 0 -64 -33z"/>
<path d="M1375 7970 c-4 -17 -5 -34 -2 -36 2 -3 7 10 11 27 8 42 0 50 -9 9z"/>
<path d="M1350 7840 c-7 -47 -10 -94 -7 -105 3 -12 5 -6 6 16 0 19 6 61 12 93
5 31 8 63 6 69 -2 7 -10 -26 -17 -73z"/>
<path d="M1333 5780 c-3 -2070 -4 -2024 46 -2234 124 -522 504 -950 1013
-1140 53 -20 103 -36 110 -36 7 1 -27 16 -77 34 -125 46 -217 89 -305 143
-407 251 -658 621 -757 1113 -15 78 -17 253 -23 2070 l-5 1985 -2 -1935z"/>
<path d="M8862 5765 c-1 -1023 -7 -1905 -12 -1960 -5 -55 -11 -120 -14 -145
-5 -42 -5 -43 4 -10 28 103 31 339 28 2135 l-3 1840 -3 -1860z"/>
<path d="M8811 3556 c-7 -32 -11 -60 -8 -62 7 -7 30 93 25 107 -2 7 -10 -14
-17 -45z"/>
<path d="M8762 3382 c-43 -125 -115 -269 -194 -385 -83 -123 -285 -325 -403
-404 -190 -127 -410 -217 -646 -265 l-114 -23 -2300 0 c-1264 0 -2272 -3
-2240 -8 33 -4 1070 -6 2305 -5 l2245 3 109 23 c538 114 949 423 1170 876 45
94 109 263 104 278 -2 4 -18 -36 -36 -90z"/>
<path d="M2521 2366 c10 -10 221 -56 254 -55 27 2 27 2 5 6 -43 7 -214 43
-240 49 -14 4 -22 4 -19 0z"/>
<path d="M1707 1919 c-121 -28 -204 -121 -214 -241 -8 -78 11 -139 59 -193 48
-54 100 -85 193 -115 125 -40 155 -63 155 -115 0 -25 -7 -39 -27 -55 -42 -33
-147 -25 -233 18 -35 18 -71 32 -81 32 -19 0 -55 -43 -83 -98 -15 -30 -16 -36
-3 -56 22 -33 142 -92 215 -107 75 -14 187 -7 254 16 65 23 142 94 164 151 21
55 23 145 5 198 -17 48 -82 121 -131 145 -19 10 -66 28 -105 41 -102 33 -141
55 -154 88 -14 34 -2 76 28 91 39 22 122 13 191 -20 l65 -31 48 52 c56 61 59
88 16 124 -88 74 -236 105 -362 75z"/>
<path d="M3335 1909 c-174 -61 -277 -205 -292 -404 -21 -289 146 -507 400
-522 278 -18 466 171 467 468 0 209 -86 367 -239 441 -59 29 -77 33 -171 35
-87 3 -115 0 -165 -18z m232 -198 c86 -40 130 -143 121 -287 -5 -91 -28 -145
-82 -191 -142 -126 -330 -16 -344 201 -13 212 140 351 305 277z"/>
<path d="M2246 1894 c-14 -13 -16 -67 -16 -432 0 -493 -7 -462 101 -462 113 0
109 -8 109 190 l0 170 140 0 140 0 0 -163 c0 -197 0 -197 104 -197 116 0 106
-45 106 455 0 500 11 455 -108 455 -101 0 -102 -1 -102 -193 l0 -157 -140 0
-140 0 0 165 c0 192 4 185 -109 185 -50 0 -74 -4 -85 -16z"/>
<path d="M4031 1891 c-21 -21 -21 -28 -21 -434 0 -357 2 -416 16 -435 13 -20
24 -22 93 -22 108 0 111 4 111 156 l0 119 44 -3 c61 -5 179 15 238 40 69 29
143 113 164 186 36 124 -5 262 -101 334 -84 63 -116 71 -332 76 -184 4 -192 3
-212 -17z m366 -190 c52 -24 77 -68 70 -123 -10 -74 -65 -108 -172 -108 l-65
0 0 125 0 125 63 0 c39 0 77 -7 104 -19z"/>
<path d="M5946 1902 c-75 -1 -135 -7 -143 -14 -18 -15 -19 -858 -1 -876 9 -9
82 -12 268 -12 186 0 259 3 268 12 15 15 16 142 2 169 -10 18 -23 19 -175 19
l-165 0 0 80 0 80 133 0 c167 0 172 3 171 94 -1 96 -1 96 -165 96 l-139 0 0
75 0 75 153 0 c194 0 197 1 197 104 0 51 -4 77 -14 85 -15 13 -169 18 -390 13z"/>
<path d="M6500 1903 c-8 -3 -18 -11 -22 -17 -4 -6 -8 -203 -8 -438 0 -423 0
-427 21 -438 14 -8 89 -11 232 -8 l212 3 60 30 c130 66 181 215 116 342 -19
39 -66 86 -93 95 -9 3 -2 17 20 42 43 49 52 74 52 147 0 131 -72 212 -215 238
-60 11 -348 14 -375 4z m354 -204 c21 -16 26 -29 26 -63 0 -63 -23 -80 -121
-86 l-79 -5 0 88 0 87 74 0 c59 0 78 -4 100 -21z m11 -343 c59 -25 74 -93 31
-143 -23 -26 -29 -28 -120 -31 l-96 -4 0 96 0 96 75 0 c43 0 90 -6 110 -14z"/>
<path d="M7267 1895 c-15 -15 -17 -58 -17 -440 0 -372 2 -425 16 -439 19 -20
163 -23 182 -4 8 8 12 56 12 150 l0 138 49 0 49 0 72 -132 c40 -73 79 -141 88
-150 12 -15 32 -18 102 -18 87 0 110 8 110 39 0 8 -37 78 -81 154 l-82 139 52
45 c80 70 96 108 96 228 0 84 -4 107 -22 140 -30 57 -79 100 -148 132 -58 27
-66 28 -261 31 -177 4 -203 2 -217 -13z m391 -202 c15 -11 33 -37 41 -59 12
-34 11 -44 -2 -76 -21 -50 -64 -70 -159 -76 l-78 -5 0 123 0 123 85 -5 c65 -3
92 -9 113 -25z"/>
<path d="M8282 1897 c-14 -16 -272 -826 -272 -853 0 -11 5 -25 12 -32 17 -17
172 -16 187 1 6 8 20 44 31 80 l21 67 153 0 153 0 18 -62 c28 -95 33 -99 133
-96 67 2 87 7 95 20 9 13 -19 112 -122 440 -78 249 -139 428 -149 436 -22 17
-246 17 -260 -1z m222 -532 l7 -26 -96 2 c-52 1 -95 4 -95 8 0 3 20 71 45 151
25 80 45 147 46 150 1 6 83 -245 93 -285z"/>
<path d="M5040 1881 c-15 -29 -12 -134 4 -157 13 -17 28 -19 175 -19 89 0 161
-2 161 -4 0 -2 -59 -90 -132 -195 -259 -375 -238 -340 -238 -404 0 -102 -16
-97 320 -100 354 -4 340 -8 340 101 0 43 -5 78 -12 85 -8 8 -64 12 -185 12
-95 0 -173 4 -173 8 0 5 52 85 116 178 268 390 254 366 254 424 0 96 21 90
-320 90 -286 0 -300 -1 -310 -19z"/>
</g>
</svg>
